HIERARCHY
ROOT Hips
{
	OFFSET 0.00000 0.00000 0.00000
	CHANNELS 6 Xposition Yposition Zposition Zrotation Yrotation Xrotation 
	JOINT LHipJoint
	{
		OFFSET 0 0 0
		CHANNELS 3 Zrotation Yrotation Xrotation
		JOINT LeftHip
		{
			OFFSET 1.64549 -1.70879 0.84566
			CHANNELS 3 Zrotation Yrotation Xrotation
			JOINT LeftKnee
			{
				OFFSET 2.24963 -6.18082 0.00000
				CHANNELS 3 Zrotation Yrotation Xrotation
				JOINT LeftAnkle
				{
					OFFSET 2.71775 -7.46697 0.00000
					CHANNELS 3 Zrotation Yrotation Xrotation
					JOINT LeftToe
					{
						OFFSET 0.18768 -0.51564 2.24737
						CHANNELS 3 Zrotation Yrotation Xrotation
						End Site
						{
							OFFSET 0.00000 -0.00000 1.15935
						}
					}
				}
			}
		}
	}
	JOINT RHipJoint
	{
		OFFSET 0 0 0
		CHANNELS 3 Zrotation Yrotation Xrotation
		JOINT RightHip
		{
			OFFSET -1.58830 -1.70879 0.84566
			CHANNELS 3 Zrotation Yrotation Xrotation
			JOINT RightKnee
			{
				OFFSET -2.25006 -6.18201 0.00000
				CHANNELS 3 Zrotation Yrotation Xrotation
				JOINT RightAnkle
				{
					OFFSET -2.72829 -7.49593 0.00000
					CHANNELS 3 Zrotation Yrotation Xrotation
					JOINT RightToe
					{
						OFFSET -0.21541 -0.59185 2.10643
						CHANNELS 3 Zrotation Yrotation Xrotation
						End Site
						{
							OFFSET -0.00000 -0.00000 1.09838
						}
					}
				}
			}
		}
	}
	JOINT lowerback
	{
		OFFSET 0 0 0
		CHANNELS 3 Zrotation Yrotation Xrotation
		JOINT Chest
		{
			OFFSET 0.03142 2.10496 -0.11038
			CHANNELS 3 Zrotation Yrotation Xrotation
			JOINT Chest2
			{
				OFFSET -0.01863 2.10897 -0.06956
				CHANNELS 3 Zrotation Yrotation Xrotation
				JOINT lowerneck
				{
					OFFSET 0 0 0
					CHANNELS 3 Zrotation Yrotation Xrotation
					JOINT Neck
					{
						OFFSET -0.02267 1.73238 0.00451
						CHANNELS 3 Zrotation Yrotation Xrotation
						JOINT Head
						{
							OFFSET -0.05808 1.54724 -0.61749
							CHANNELS 3 Zrotation Yrotation Xrotation
							End Site
							{
								OFFSET -0.01396 1.71468 -0.21082
							}
						}
					}
				}
				JOINT LeftCollar
				{
					OFFSET 0 0 0
					CHANNELS 3 Zrotation Yrotation Xrotation
					JOINT LeftShoulder
					{
						OFFSET 3.44898 0.50298 0.21920
CHANNELS 3 Zrotation Xrotation Yrotation
						JOINT LeftElbow
						{
OFFSET 0 -5.419170 -0.000000
CHANNELS 3 Zrotation Xrotation Yrotation
							JOINT LeftWrist
							{
OFFSET 0 -2.443730 0.000000
CHANNELS 3 Zrotation Xrotation Yrotation
								JOINT lhand
								{
									OFFSET 0 0 0
CHANNELS 3 Zrotation Xrotation Yrotation
									JOINT LFingers
									{
OFFSET 0 -0.727500 0.000000
CHANNELS 3 Zrotation Xrotation Yrotation
										End Site
										{
OFFSET 0 -0.586530 0.000000
										}
									}
								}
								JOINT LThumb
								{
OFFSET 0 0.000000 0.000000
CHANNELS 3 Zrotation Xrotation Yrotation
									End Site
									{
OFFSET 0 -0.595490 0.595490
									}
								}
							}
						}
					}
				}
				JOINT RightCollar
				{
					OFFSET 0 0 0
					CHANNELS 3 Zrotation Yrotation Xrotation
					JOINT RightShoulder
					{
						OFFSET -3.23015 0.55830 0.31051
CHANNELS 3 Zrotation Xrotation Yrotation
						JOINT RightElbow
						{
OFFSET 0 -5.589760 0.000140
CHANNELS 3 Zrotation Xrotation Yrotation
							JOINT RightWrist
							{
OFFSET 0 -2.480600 0.000000
CHANNELS 3 Zrotation Xrotation Yrotation
								JOINT rhand
								{
									OFFSET 0 0 0
CHANNELS 3 Zrotation Xrotation Yrotation
									JOINT RFingers
									{
OFFSET 0 -0.816010 0.000000
CHANNELS 3 Zrotation Xrotation Yrotation
										End Site
										{
OFFSET 0 -0.657890 0.000000
										}
									}
								}
								JOINT RThumb
								{
OFFSET 0 0.000000 0.000000
CHANNELS 3 Zrotation Xrotation Yrotation
									End Site
									{
OFFSET 0 -0.667930 0.667930
									}
								}
							}
						}
					}
				}
			}
		}
	}
}
MOTION
Frames: 4
Frame Time: 0.008333333333333333
1.059576 18.220578 13.924283 -164.476913 -64.342408 187.214442 0.000000 0.000000 0.000000 -9.972160 -12.054467 -36.756803 6.639637 15.020805 47.497996 1.476937 12.957154 -30.850174 0.945238 6.112518 17.137468 0.000000 0.000000 0.000000 23.029113 19.615460 -41.109435 -6.479807 -14.877719 46.878268 179.386498 10.117896 21.739235 -0.006083 0.398881 -1.096155 5.806876 0.117063 -3.165752 1.564369 -0.190822 -9.352936 -1.548983 -0.688839 -8.068974 -10.569988 -12.990405 -9.798730 13.418314 -23.221517 28.403535 2.916357 -10.562875 14.310890 0.000000 0.000000 0.000000 49.321291 14.433176 8.544742 11.122841 -18.476212 1.814723 1.993325 28.353079 -18.050873 0.000000 0.000000 0.000000 -7.125000 0.000000 0.000000 -24.449061 46.469960 0.942561 0.000000 0.000000 0.000000 -59.716339 -4.067669 -43.750991 -7.340265 -12.477811 -0.803607 -5.660651 30.943784 -9.030829 0.000000 0.000000 0.000000 7.125000 0.000000 0.000000 15.183278 21.023360 9.041576
1.029284 18.227393 13.743460 -162.474371 -62.553268 185.063591 0.000000 0.000000 0.000000 -8.997079 -12.588554 -35.354563 6.544985 14.936231 47.131220 2.170801 9.713537 -32.698152 1.382337 7.405863 20.939527 0.000000 0.000000 0.000000 22.530867 21.183332 -40.969628 -6.419045 -14.822495 46.641300 -179.282690 18.553315 19.149688 -1.031183 -5.876368 16.625220 6.994052 0.314443 -2.432430 2.238050 0.203454 -8.852897 -1.517817 -0.526544 -7.934087 -10.859963 -12.805143 -10.334187 13.620330 -22.991535 28.634295 3.044620 -10.426101 14.569672 0.000000 0.000000 0.000000 49.749395 14.310385 10.065218 10.952502 -18.215365 1.761078 2.275475 29.477049 -18.527930 0.000000 0.000000 0.000000 -7.125000 0.000000 0.000000 -24.415282 46.940182 1.241551 0.000000 0.000000 0.000000 -60.968815 -3.452229 -51.095823 -7.348100 -12.490704 -0.805255 -6.933110 36.913754 -9.627062 0.000000 0.000000 0.000000 7.125000 0.000000 0.000000 14.240821 20.410068 8.647975
0.992784 18.226108 13.547287 -162.696611 -60.848644 185.373674 0.000000 0.000000 0.000000 -8.888378 -13.883435 -33.791679 6.372023 14.779240 46.456815 2.821008 6.821132 -34.665627 1.825429 8.492575 24.220482 0.000000 0.000000 0.000000 20.397531 23.055523 -41.659032 -6.371733 -14.779070 46.455870 -177.639925 26.181931 14.005368 -2.988891 -10.665395 31.171390 7.150742 0.451645 -2.064383 2.562325 0.438262 -8.632258 -1.275688 -0.400196 -7.890969 -10.812082 -12.595232 -10.602868 13.551879 -22.668468 28.737365 3.064562 -10.270693 14.601644 0.000000 0.000000 0.000000 50.468482 14.556267 11.374894 10.912548 -18.153994 1.748605 1.874574 30.465587 -19.174330 0.000000 0.000000 0.000000 -7.125000 0.000000 0.000000 -25.069908 47.473134 1.628626 0.000000 0.000000 0.000000 -61.940295 -2.155395 -54.775525 -7.395751 -12.568710 -0.815559 -7.963947 39.585042 -9.650774 0.000000 0.000000 0.000000 7.125000 0.000000 0.000000 13.516038 20.354236 8.199181
0.954158 18.175431 13.368112 -163.390990 -59.263986 186.126780 0.000000 0.000000 0.000000 -9.239622 -15.074489 -32.264119 6.176615 14.597005 45.685790 2.797600 8.216144 -35.289608 1.202009 6.913514 19.476044 0.000000 0.000000 0.000000 19.039184 20.267691 -44.108254 -6.337307 -14.747363 46.320816 -178.234038 23.656366 16.274390 -2.232480 -9.333462 26.844935 7.088841 0.496295 -1.789264 2.928129 0.537251 -8.299131 -0.867204 -0.314741 -7.680326 -10.607412 -12.448818 -11.211482 13.052942 -22.210245 28.817080 2.902753 -10.048849 14.578927 0.000000 0.000000 0.000000 50.828281 14.570581 15.156588 10.707141 -17.837920 1.685173 1.010314 33.384906 -18.951274 0.000000 0.000000 0.000000 -7.125000 0.000000 0.000000 -25.728373 47.156745 1.461906 0.000000 0.000000 0.000000 -63.528493 -1.339187 -59.353197 -7.203681 -12.253860 -0.774522 -8.981755 43.343463 -9.330999 0.000000 0.000000 0.000000 7.125000 0.000000 0.000000 12.821014 20.634589 7.672355
